<?xml version="1.0" encoding="UTF-8"?>
<!DOCTYPE svg PUBLIC "-//W3C//DTD SVG 1.1//EN" "http://www.w3.org/Graphics/SVG/1.1/DTD/svg11.dtd">
<!-- Creator: CorelDRAW X8 -->
<svg xmlns="http://www.w3.org/2000/svg" xml:space="preserve" width="144.35mm" height="129.75mm" version="1.1" style="shape-rendering:geometricPrecision; text-rendering:geometricPrecision; image-rendering:optimizeQuality; fill-rule:evenodd; clip-rule:evenodd"
viewBox="0 0 14435 12975"
 xmlns:xlink="http://www.w3.org/1999/xlink">
 <defs>
  <style type="text/css">
   <![CDATA[
    .fil0 {fill:#009158}
    .fil1 {fill:#009158;fill-rule:nonzero}
   ]]>
  </style>
 </defs>
 <g id="Warstwa_x0020_1">
  <metadata id="CorelCorpID_0Corel-Layer"/>
  <g id="_2620559383536">
   <path class="fil0" d="M7945 396c3365,0 6093,2728 6093,6091 0,3364 -2728,6092 -6093,6092 -2458,0 -4576,-1457 -5539,-3553l-528 -318 -40 -25c900,2502 3295,4292 6107,4292 3584,0 6490,-2905 6490,-6488 0,-3582 -2906,-6487 -6490,-6487 -1913,0 -3632,828 -4820,2145l549 0c1099,-1081 2608,-1749 4271,-1749zm-5888 7661c-133,-501 -204,-1027 -204,-1570 0,-757 138,-1482 391,-2151l-422 0c-237,674 -366,1397 -366,2151 0,568 73,1119 210,1644l22 -34 368 -42 1 2z"/>
   <path class="fil1" d="M1013 3274c-37,155 -75,290 -112,408 -34,116 -71,211 -105,288 -30,62 -56,104 -81,122 -24,19 -58,28 -101,28 -32,0 -58,-4 -80,-14 -21,-9 -38,-25 -53,-46 -58,-81 -116,-223 -174,-424 -56,-200 -114,-469 -174,-802 -4,-26 -9,-58 -15,-98 -11,-79 -24,-125 -36,-143 -3,-3 -18,-14 -43,-33 -26,-16 -39,-39 -39,-69 0,-33 9,-56 24,-70 17,-16 43,-23 77,-23l373 0c37,0 62,7 78,21 15,14 23,34 23,65 0,13 -2,27 -8,41 -5,12 -11,21 -20,26 -4,4 -11,9 -19,16 -34,23 -52,49 -52,74 0,95 20,239 60,431 41,193 97,399 168,624 64,-176 114,-343 148,-503 34,-158 51,-299 51,-422 0,-58 -4,-102 -10,-134 -7,-33 -17,-56 -30,-68 -5,-4 -13,-11 -24,-18 -28,-23 -43,-49 -43,-74 0,-26 7,-44 19,-58 15,-14 33,-21 58,-21l378 0c32,0 58,7 75,23 17,14 26,37 26,65 0,18 -4,32 -13,46 -6,12 -21,23 -43,33 -21,11 -36,23 -43,34 -8,12 -10,26 -10,45 0,83 23,220 72,405 50,186 116,401 204,647 73,-213 131,-410 172,-593 41,-184 62,-327 62,-429 0,-26 -4,-44 -10,-61 -9,-14 -22,-27 -41,-37 -9,-4 -20,-9 -37,-16 -40,-21 -62,-49 -62,-86 0,-25 9,-46 24,-58 17,-11 43,-18 79,-18l249 0c34,0 60,7 77,18 15,14 24,33 24,61 0,30 -15,58 -47,81 -13,7 -20,14 -26,18 -13,10 -26,70 -43,179 -13,93 -26,169 -37,232 -47,250 -100,475 -165,674 -64,200 -122,334 -176,408 -13,19 -30,33 -47,40 -17,7 -43,11 -77,11 -47,0 -84,-9 -107,-25 -26,-16 -52,-51 -76,-100 -38,-79 -79,-181 -122,-308 -43,-125 -84,-265 -120,-413zm1562 -35c0,225 39,399 114,524 75,123 180,186 315,186 144,0 251,-61 322,-183 71,-123 108,-306 108,-550 0,-218 -37,-385 -112,-505 -75,-118 -182,-179 -318,-179 -139,0 -244,61 -317,181 -75,123 -112,297 -112,526zm-399 0c0,-136 21,-259 67,-366 42,-107 109,-204 201,-292 75,-72 161,-125 256,-165 96,-37 197,-55 304,-55 114,0 219,18 316,55 94,37 180,91 253,165 88,86 155,183 197,292 41,107 63,230 63,366 0,139 -22,262 -63,369 -42,104 -109,199 -201,287 -77,72 -165,128 -262,167 -94,40 -197,58 -303,58 -111,0 -212,-18 -304,-55 -90,-37 -176,-93 -256,-170 -92,-90 -161,-190 -204,-294 -43,-104 -64,-225 -64,-362zm2316 253l0 271c0,49 4,81 8,98 7,16 19,27 39,39 4,2 8,5 15,7 41,21 60,49 60,86 0,28 -9,46 -28,60 -19,12 -49,19 -94,19l-402 0c-36,0 -62,-7 -79,-19 -17,-12 -26,-28 -26,-53 0,-21 4,-37 11,-51 8,-12 23,-26 47,-40 28,-18 43,-32 49,-44 7,-11 9,-28 9,-51l0 -1092c0,-44 -4,-74 -13,-92 -6,-17 -24,-33 -49,-44 -2,0 -5,-3 -7,-3 -43,-21 -64,-53 -64,-95 0,-28 11,-48 30,-65 19,-18 47,-25 79,-25l402 0c43,0 75,7 94,21 22,16 30,39 30,72 0,37 -19,67 -56,90 -8,7 -15,12 -19,14 -13,9 -24,23 -28,39 -6,16 -8,47 -8,88l0 24 0 505c148,-158 270,-297 364,-415 95,-121 142,-195 142,-220 0,-21 -15,-40 -43,-54 -6,-2 -13,-7 -17,-9 -13,-7 -22,-16 -28,-28 -6,-9 -9,-23 -9,-39 0,-30 9,-51 28,-67 20,-14 45,-21 84,-21l288 0c47,0 81,7 103,23 23,16 34,39 34,72 0,35 -26,67 -79,93 -33,18 -56,32 -73,46 -11,9 -58,65 -140,165 -81,102 -163,197 -242,282 85,84 171,188 257,311 86,125 167,267 247,427 2,2 4,4 4,9 15,30 37,55 71,76 2,0 6,3 11,7 34,19 51,47 51,79 0,28 -11,51 -30,63 -21,14 -56,21 -101,21l-403 0c-32,0 -56,-7 -75,-21 -20,-14 -28,-33 -28,-54 0,-30 13,-53 38,-71 26,-21 39,-35 39,-42 0,-33 -32,-102 -99,-207 -66,-106 -146,-213 -242,-322 -22,21 -43,42 -69,65 -26,23 -53,47 -83,72z"/>
   <path class="fil1" d="M7832 10279l-4276 -2334 -2361 283 3997 2365 2640 -314zm500 -6891l3741 1904 -1110 -1579 -3732 -1947 1101 1622zm723 5934l-312 -1429 -929 -223 -150 -37 127 -87 2265 -1553 -1844 -956 1 -2 -3315 2098 4157 2189zm2793 -3584l-2965 2150 315 1443 2975 -2322 4 -107 -329 -1164zm-3034 2031l2945 -2136 -712 -152 -3051 2091 818 197zm-1024 -3987l-2957 1822 681 530 2985 -1829 -709 -523zm388 881l-2633 1613 -40 25 -38 -29 -697 -542 15 1311 3377 -2136 16 -242zm179 -633l305 226 82 60 -87 53 -335 206 -23 352 1886 978 808 -554 25 -16 28 6 846 180 40 8 12 40 249 883 32 -930 -1 1 -3837 -1953 -30 460zm-6445 3974l450 -54 1220 -147 1067 -675 -18 -1522 0 -38 33 -21 3094 -1906 40 -25 37 28 390 288 28 -415 -1290 -1899 -154 -227 243 127 3990 2080 14 8 10 14 1285 1829 14 19 -1 22 -54 1555 -1 32 -26 20 -4216 3292c-961,115 -1921,229 -2881,344l-23 2 -20 -11 -1948 -1153 0 0 -1134 -671 -1111 -657 -174 -103 201 -24 375 -45 422 -51 138 -16zm1808 -126l4320 2358 989 -772 -4265 -2246 -1044 660z"/>
  </g>
 </g>
</svg>
